<svg xmlns="http://www.w3.org/2000/svg" xmlns:xlink="http://www.w3.org/1999/xlink" viewBox="0,0,256,256" width="64px" height="64px" fill-rule="nonzero"><g fill="#000000" fill-rule="nonzero" stroke="none" stroke-width="1" stroke-linecap="butt" stroke-linejoin="miter" stroke-miterlimit="10" stroke-dasharray="" stroke-dashoffset="0" font-family="none" font-weight="none" font-size="none" text-anchor="none" style="mix-blend-mode: normal"><g transform="scale(4,4)"><path d="M32.52148,6c-14.363,0 -26.00586,11.642 -26.00586,26c0,14.358 11.64286,26 26.00586,26c21.688,0 26.57697,-20.13403 24.54297,-30.33203h-5.88281h-1.91211h-16.75391v8.66602h16.76367c-1.92754,7.47083 -8.69118,12.99805 -16.76367,12.99805c-9.572,0 -17.33398,-7.76003 -17.33398,-17.33203c0,-9.572 7.76198,-17.33203 17.33398,-17.33203c4.353,0 8.31928,1.61563 11.36328,4.26563l6.1543,-6.1543c-4.623,-4.212 -10.76672,-6.7793 -17.51172,-6.7793z"></path></g></g></svg>